<?xml version="1.0" encoding="utf-8"?>
<!-- Generator: Adobe Illustrator 26.3.1, SVG Export Plug-In . SVG Version: 6.00 Build 0)  -->
<svg version="1.1" id="Layer_1" xmlns="http://www.w3.org/2000/svg" xmlns:xlink="http://www.w3.org/1999/xlink" x="0px" y="0px"
	 viewBox="0 0 150 34" enable-background="new 0 0 150 34" xml:space="preserve">
<g>
	
		<image overflow="visible" opacity="0.1" width="714" height="266" xlink:href="B62D82645CEB6AE9.png"  transform="matrix(0.24 0 0 0.24 -3.72 -8.04)">
	</image>
	<g>
		<g>
			<path fill="none" stroke="#000000" stroke-width="3" stroke-miterlimit="16.6667" d="M26,29c-0.9-0.3-1.6-1.1-1.6-2.1v-1.5l5.5-2
				c0.6-0.2,1-0.8,1-1.4v-5.1c0-0.5,0.3-1.1,0.8-1.3l1.7-0.9c0.7-0.4,1.6,0.1,1.6,1v7.8c0,0.8-0.4,1.4-1.1,1.8l-6.3,3.6
				c-0.3,0.2-0.7,0.3-1.1,0.3C26.4,29.1,26.2,29.1,26,29L26,29z M26,29c-0.9-0.3-1.6-1.1-1.6-2.1V10.5c0-1,0.6-1.8,1.5-2.1l-5.9,1.7
				c-0.9,0.3-1.5,1.1-1.5,2v13.2c0,0.9,0.6,1.8,1.5,2C20.2,27.4,26,29,26,29z M24.5,12.9H31c1.1,0,1.5-1.5,0.5-2.1l-3.9-2.2
				c-0.3-0.2-0.7-0.3-1-0.3c-0.2,0-0.4,0-0.6,0.1c-0.9,0.3-1.5,1.1-1.5,2.1L24.5,12.9L24.5,12.9L24.5,12.9z"/>
			<g id="Page-1_00000049900902343291788430000015296720692322943121_">
				<g id="Icon-Set_00000112590664679752119610000014862700472126349203_" transform="translate(-517.000000, -779.000000)">
					<path id="cloud_00000114794697639799867130000001686359847754369964_" fill-rule="evenodd" clip-rule="evenodd" d="
						M552.3,809.8h-19.6c0,0-8.5-0.9-8.4-8.4c0-3.9,3.1-7.5,7.2-8.3c0.7-0.1,1.2-0.7,1.2-1.4c0.5-5.3,4.1-10,9.8-10
						c4.3,0,7.3,2.4,8.7,5.8c0.3,0.7,1,1.2,1.8,1.3c6.2,0.4,10.3,5.5,10.5,9.8C563.8,804.8,557.3,809.8,552.3,809.8L552.3,809.8z
						 M553.8,786c-2.1-4.2-6.3-7-11.3-7c-6.7,0-12.1,5.2-12.6,11.7c-4.9,1.4-8.4,5.7-8.4,10.7c0,6,5,10.8,11.2,11.2
						c0,0,19.4,0,19.6,0c7.4,0,14-6,14-13.3C566.3,792.2,560.8,786.4,553.8,786L553.8,786z"/>
				</g>
			</g>
			<path d="M53.7,26V8.4c0-0.7,0.6-1.3,1.3-1.3h6.3c1.9,0,3.4,0.4,4.3,1.2c0.9,0.8,1.4,2,1.4,3.6c0,1.2-0.3,2.2-0.8,3
				c-0.5,0.7-1.2,1.2-2,1.6c-0.2,0.1-0.3-0.1-0.3-0.2l0,0c0-0.2,0.2-0.3,0.3-0.2c1.4,0.4,2.6,1,3.3,1.8c0.8,0.9,1.2,2.1,1.2,3.7
				c0,1.8-0.6,3.2-1.8,4.2c-1.2,1-2.8,1.5-4.8,1.5H55C54.3,27.2,53.7,26.7,53.7,26z M57.4,13.7c0,0.7,0.6,1.3,1.3,1.3h2.1
				c0.9,0,1.6-0.2,2-0.5c0.4-0.4,0.7-0.9,0.7-1.8c0-0.8-0.2-1.4-0.7-1.8c-0.4-0.4-1.1-0.5-2-0.5h-2.1c-0.7,0-1.3,0.6-1.3,1.3V13.7z
				 M57.4,23.7c0,0.1,0.1,0.3,0.3,0.3h3.9c1,0,1.8-0.2,2.4-0.6c0.6-0.4,0.9-1.2,0.9-2.2c0-1.1-0.3-1.8-0.9-2.2
				c-0.6-0.4-1.4-0.6-2.4-0.6h-2.9c-0.7,0-1.3,0.6-1.3,1.3L57.4,23.7L57.4,23.7z"/>
			<path d="M75.4,27.5c-1.5,0-2.7-0.3-3.6-0.9c-0.9-0.6-1.5-1.4-1.9-2.5c-0.4-1-0.6-2.2-0.6-3.6v-6.8c0-0.5,0.4-1,1-1h1.6
				c0.5,0,1,0.4,1,1v6.8c0,1.3,0.2,2.3,0.7,3c0.4,0.6,1.2,1,2.2,1c0.8,0,1.5-0.2,2-0.6c0.3-0.2,0.5-0.4,0.7-0.7
				c0.1-0.1,0.3,0,0.2,0.1l0,0c0,0.1-0.3,0.1-0.3,0v-9.5c0-0.5,0.4-1,1-1H81c0.5,0,1,0.4,1,1v12.4c0,0.5-0.4,1-1,1h-2.2
				c-0.1,0-0.1,0-0.1-0.1l-0.1-1.9c0-0.1,0.2-0.2,0.2-0.1l0.4,0.6c0,0,0,0.1,0,0.2c-0.3,0.4-0.9,0.8-1.6,1.1
				C76.8,27.3,76.1,27.5,75.4,27.5z"/>
			<path d="M87.6,27.5c-0.9,0-1.8-0.1-2.6-0.3c-0.4-0.1-0.9-0.2-1.3-0.4c-0.6-0.2-1-0.8-0.9-1.4l0-0.1c0.1-0.9,1-1.5,1.9-1.1
				c0.2,0.1,0.3,0.1,0.5,0.2c0.7,0.3,1.5,0.4,2.3,0.4c0.7,0,1.3-0.1,1.6-0.3c0.4-0.2,0.6-0.6,0.6-1.1c0-0.4-0.1-0.7-0.3-0.9
				c-0.2-0.2-0.5-0.5-0.9-0.6c-0.4-0.2-0.9-0.4-1.5-0.6c-0.9-0.3-1.6-0.7-2.3-1.1c-0.6-0.4-1.1-0.8-1.4-1.4c-0.3-0.5-0.5-1.2-0.5-2
				c0-0.8,0.2-1.6,0.6-2.2c0.4-0.6,1-1.1,1.8-1.5c0.8-0.4,1.7-0.5,2.8-0.5c0.9,0,1.7,0.1,2.5,0.3c0.4,0.1,0.7,0.2,1.1,0.4
				c0.5,0.2,0.9,0.8,0.8,1.4l0,0c-0.1,0.9-1.1,1.5-1.9,1.1c-0.1,0-0.1-0.1-0.2-0.1c-0.6-0.3-1.4-0.4-2.1-0.4c-0.6,0-1.1,0.1-1.4,0.4
				c-0.3,0.2-0.5,0.6-0.5,1.1c0,0.6,0.2,1,0.7,1.3c0.5,0.3,1.2,0.6,2.3,1c0.7,0.3,1.3,0.5,1.7,0.8c0.5,0.3,0.9,0.6,1.2,0.9
				c0.3,0.3,0.6,0.7,0.7,1.1c0.2,0.4,0.2,0.9,0.2,1.5c0,0.9-0.2,1.7-0.7,2.3c-0.4,0.6-1.1,1.1-1.9,1.5
				C89.8,27.4,88.8,27.5,87.6,27.5z"/>
			<path d="M94.5,8.9L94.5,8.9c0-1,0.8-1.8,1.8-1.8l0,0c1,0,1.8,0.8,1.8,1.8l0,0c0,1-0.8,1.8-1.8,1.8l0,0
				C95.3,10.7,94.5,9.9,94.5,8.9z M94.5,26.6V13.5c0-0.4,0.3-0.7,0.7-0.7h2.3c0.4,0,0.7,0.3,0.7,0.7v13.1c0,0.4-0.3,0.7-0.7,0.7
				h-2.3C94.8,27.2,94.5,26.9,94.5,26.6z"/>
			<path d="M108.3,27.7c-1.8,0-3.3-0.4-4.7-1.1c-1.4-0.8-2.4-1.8-3.2-3.2c-0.8-1.4-1.1-3-1.1-4.8c0-1.8,0.4-3.4,1.2-4.8
				s1.9-2.4,3.2-3.2c1.4-0.8,2.9-1.1,4.7-1.1c0.9,0,1.8,0.1,2.5,0.3c0.3,0.1,0.6,0.2,0.8,0.3c0.7,0.2,1.1,0.9,1,1.6v0
				c-0.1,0.9-1,1.5-1.9,1.3c-0.1,0-0.2,0-0.3-0.1c-0.7-0.2-1.4-0.3-2.3-0.3c-1.2,0-2.3,0.3-3.1,0.8c-0.8,0.5-1.4,1.2-1.9,2.1
				c-0.4,0.9-0.6,2-0.6,3.1c0,1.2,0.2,2.2,0.6,3.1c0.4,0.9,1,1.6,1.8,2.1c0.8,0.5,1.8,0.8,3,0.8c0.8,0,1.6-0.1,2.3-0.3
				c0.1,0,0.2,0,0.3-0.1c0.9-0.3,1.8,0.3,1.9,1.3l0,0c0.1,0.7-0.3,1.4-1,1.6c-0.3,0.1-0.7,0.2-1,0.3C110,27.6,109.2,27.7,108.3,27.7
				z"/>
			<path d="M121.6,12.9L121.6,12.9c0.2,0,0.3,0.2,0.3,0.4L117,27.1c0,0.1-0.2,0.2-0.3,0.2h-2.5c-0.2,0-0.3-0.2-0.3-0.4l6-17
				c0-0.1,0.2-0.2,0.3-0.2h2.6c0.1,0,0.2,0.1,0.3,0.2l6,17c0.1,0.2-0.1,0.4-0.3,0.4h-2.5c-0.1,0-0.2-0.1-0.3-0.2l-4.9-13.8
				C121.2,13.1,121.4,12.9,121.6,12.9z M124.9,23.1h-6.8c-0.2,0-0.3-0.1-0.3-0.3v-2.2c0-0.2,0.1-0.3,0.3-0.3h6.8
				c0.2,0,0.3,0.1,0.3,0.3v2.2C125.2,23,125.1,23.1,124.9,23.1z"/>
			<path d="M130.3,26.6V10.4c0-0.4,0.3-0.7,0.7-0.7h5.9c1.7,0,3.2,0.4,4.5,1s2.3,1.7,3.1,3c0.7,1.3,1.1,2.9,1.1,4.7
				c0,1.8-0.4,3.4-1.1,4.7c-0.7,1.3-1.8,2.3-3.1,3c-1.3,0.7-2.8,1-4.5,1H131C130.6,27.3,130.3,27,130.3,26.6z M133.5,23.7
				c0,0.4,0.3,0.7,0.7,0.7h2.7c1.1,0,2.1-0.2,2.8-0.7c0.8-0.5,1.3-1.2,1.7-2c0.4-0.9,0.6-1.9,0.6-3.2s-0.2-2.3-0.6-3.2
				c-0.4-0.9-1-1.6-1.7-2c-0.8-0.5-1.7-0.7-2.8-0.7h-2.7c-0.4,0-0.7,0.3-0.7,0.7V23.7z"/>
		</g>
	</g>
</g>
</svg>
