<?xml version="1.0" encoding="utf-8"?>
<!-- Generator: Adobe Illustrator 26.3.1, SVG Export Plug-In . SVG Version: 6.00 Build 0)  -->
<svg version="1.1" id="Layer_1" xmlns="http://www.w3.org/2000/svg" xmlns:xlink="http://www.w3.org/1999/xlink" x="0px" y="0px"
	 viewBox="0 0 1850 500" enable-background="new 0 0 1850 500" xml:space="preserve">
<g>
	<path fill="none" stroke="#000000" stroke-width="30" stroke-miterlimit="16.6667" d="M327.1,397.6c-11.4-3.2-19.2-13.6-19.2-25.5
		v-18.6l67.5-24.5c7.2-2.7,12-9.5,12-17.2v-62.3c0-6.7,3.6-12.9,9.5-16.1l20.9-11.3c9-4.9,19.9,1.7,19.8,11.9v94.7
		c0,9.2-4.9,17.7-12.9,22.3l-77.3,44.2c-4,2.3-8.5,3.5-13.1,3.5C331.9,398.6,329.5,398.2,327.1,397.6L327.1,397.6z M327.1,397.6
		c-11.4-3.2-19.2-13.6-19.2-25.5V170.7c0-11.7,7.7-22,18.9-25.2L255.3,166c-11,3.2-18.5,13.2-18.5,24.7v161.8
		c0,11.5,7.6,21.6,18.6,24.7C255.3,377.2,327.1,397.6,327.1,397.6z M307.9,200.1h79.8c13.7-0.1,18.5-18.3,6.7-25.2l-47.5-27.1
		c-3.9-2.2-8.3-3.4-12.8-3.4c-2.4,0-4.8,0.4-7.2,1.1c-11.2,3.2-18.9,13.5-18.9,25.2v29.4H307.9L307.9,200.1z"/>
	<g id="Page-1">
		<g id="Icon-Set" transform="translate(-517.000000, -779.000000)">
			<path id="cloud" fill-rule="evenodd" clip-rule="evenodd" d="M956.9,1198.2H717.3c0,0-103.3-10.6-102.7-102.7
				c0.3-47.4,38.4-91.2,88.2-100.9c8.2-1.6,14.4-8.4,15.2-16.8c5.9-64.9,50-121.9,119.1-121.9c52.6,0,89.5,28.8,106.7,70.7
				c3.6,8.8,12,14.7,21.4,15.3c75.8,4.9,126,66.9,128.5,119.4C1097.4,1136.8,1018.5,1198.2,956.9,1198.2L956.9,1198.2z M975.1,907.7
				c-25.1-50.9-77.4-86-138-86c-81.3,0-147.7,63-153.4,142.8c-59.7,17-103.2,69.2-103.2,131c0,72.9,60.6,132.3,136.9,136.5
				c0,0,236.7,0.4,239.6,0.4c89.8,0,171.1-72.8,171.1-162.6C1128,983.3,1060.4,912.8,975.1,907.7L975.1,907.7z"/>
		</g>
	</g>
	<path d="M665.4,360.1v-215c0-8.6,7-15.6,15.6-15.6h77.3c23.8,0,41.5,5.1,53,15.2c11.5,10.2,17.4,24.9,17.4,44.2
		c0,14.4-3.2,26.5-9.8,36.1c-5.8,8.6-14.1,15.1-25,19.6c-2,0.8-4.2-0.7-4.2-2.9l0,0c0-2,1.9-3.5,3.9-3c17.7,4.3,31.2,11.8,40.3,22.3
		c9.7,11.3,14.6,26.1,14.6,44.7c0,22.2-7.1,39.3-21.4,51.6c-14.3,12.3-33.9,18.4-58.7,18.4H681C672.4,375.7,665.4,368.7,665.4,360.1
		z M710.5,210.6c0,8.6,7,15.6,15.6,15.6h25.6c10.9,0,19.1-2.2,24.6-6.6c5.4-4.4,8.2-11.6,8.2-21.4c0-10.2-2.8-17.5-8.2-21.9
		c-5.4-4.4-13.7-6.6-24.6-6.6h-25.6c-8.6,0-15.6,7-15.6,15.6V210.6z M710.5,332.5c0,1.8,1.4,3.1,3.1,3.1h47.9
		c12.3,0,22.2-2.5,29.5-7.6s11-14.1,11-27.2c0-13.4-3.9-22.4-11.6-27.2c-7.8-4.8-17.4-7.2-28.8-7.2h-35.4c-8.6,0-15.6,7-15.6,15.6
		L710.5,332.5L710.5,332.5z"/>
	<path d="M929.5,379.2c-18.3,0-32.9-3.6-43.8-10.9s-18.7-17.3-23.5-30c-4.8-12.7-7.2-27.3-7.2-43.9v-82.7c0-6.6,5.4-12,12-12h19.6
		c6.6,0,12,5.4,12,12v82.7c0,16.3,2.8,28.4,8.2,36.3c5.4,7.9,14.3,11.9,26.7,11.9c9.9,0,18-2.3,24.6-7c3.2-2.3,6.2-5.2,9-8.4
		c1.2-1.4,3.4-0.1,2.9,1.7l0,0c-0.6,1.8-3.2,1.3-3.2-0.6V211.8c0-6.6,5.4-12,12-12h19.6c6.6,0,12,5.4,12,12v151.9
		c0,6.6-5.4,12-12,12h-27.3c-0.8,0-1.6-0.6-1.7-1.6l-1.7-23.5c-0.1-1.7,1.9-2.4,3-1.1l5.4,6.9c0.5,0.6,0.5,1.5,0,2
		c-4.2,5-10.6,9.6-19.1,13.9C947.6,377,938.5,379.2,929.5,379.2z"/>
	<path d="M1079,379.2c-11.6,0-22.1-1.1-31.4-3.3c-5.3-1.3-10.5-2.9-15.8-4.7c-7.2-2.6-11.7-9.8-11-17.5l0.1-0.8
		c1.1-11.1,12.7-18,22.9-13.7c2.1,0.9,4.2,1.7,6.3,2.5c8.8,3.2,17.9,4.8,27.5,4.8c8.7,0,15.3-1.4,19.9-4.2c4.6-2.8,6.8-7.3,6.8-13.4
		c0-4.6-1.2-8.3-3.6-11.3c-2.4-3-6-5.5-10.8-7.9c-4.8-2.3-10.8-4.9-17.9-7.6c-10.8-4-19.9-8.3-27.5-13c-7.6-4.7-13.3-10.3-17.3-17
		c-4-6.6-5.9-14.8-5.9-24.6c0-10.1,2.7-19,7.9-26.8c5.3-7.8,12.7-13.8,22.5-18.1c9.7-4.3,21.2-6.5,34.6-6.5c11.2,0,21.1,1.2,30,3.7
		c4.6,1.3,9,2.8,13.3,4.6c6.7,2.8,10.8,9.8,10.1,17.1l0,0c-1.2,11.4-13.3,18.3-23.5,13.4c-0.9-0.5-1.8-0.9-2.9-1.3
		c-7.9-3.6-16.7-5.4-26.2-5.4c-7.5,0-13.3,1.6-17.5,4.6c-4.1,3-6.2,7.4-6.2,13c0,6.8,2.9,11.9,8.6,15.3c5.7,3.4,15,7.6,27.6,12.5
		c8.2,3.1,15.3,6.5,21.3,9.9c6,3.4,11.1,7.1,15.1,11.3c4,4.1,6.9,8.8,8.9,13.9c1.9,5.3,2.9,11.3,2.9,18c0,11.2-2.7,20.6-8,28.4
		c-5.4,7.8-13.1,13.8-23.4,17.8C1106.3,377.2,1093.8,379.2,1079,379.2z"/>
	<path d="M1163.1,151.3L1163.1,151.3c0-12,9.8-21.8,21.8-21.8l0,0c12,0,21.8,9.8,21.8,21.8l0,0c0,12-9.8,21.8-21.8,21.8l0,0
		C1172.9,173.1,1163.1,163.3,1163.1,151.3z M1163.1,367.7V207.8c0-4.4,3.6-8,8-8h27.6c4.4,0,8,3.6,8,8v159.8c0,4.4-3.6,8-8,8h-27.6
		C1166.7,375.7,1163.1,372.1,1163.1,367.7z"/>
	<path d="M1332,380.7c-21.7,0-40.9-4.6-57.4-13.8c-16.6-9.3-29.4-22.2-38.7-38.9c-9.2-16.7-13.8-36.3-13.8-58.8
		c0-22.4,4.7-42.1,14.3-58.8s22.7-29.7,39.5-38.9c16.7-9.3,35.9-13.8,57.4-13.8c11.3,0,21.7,1.2,31.1,3.6c3.6,0.9,7,1.9,10.3,3.1
		c8.3,2.8,13.5,10.9,12.5,19.6v0.2c-1.3,11.3-12.5,18.9-23.5,15.6c-1-0.3-2.1-0.6-3.2-1c-8.2-2.3-17.4-3.5-27.5-3.5
		c-15,0-27.6,3.1-37.6,9.5c-10.1,6.4-17.6,15-22.8,26.2c-5.1,11.1-7.6,23.9-7.6,38.1c0,14.3,2.5,27,7.5,38.1s12.5,19.9,22.4,26.2
		s22.4,9.5,37.2,9.5c10.3,0,19.5-1.1,27.8-3.4c1.2-0.3,2.3-0.6,3.5-1c11.1-3.3,22.5,4,23.8,15.5l0,0c1,8.6-4.1,16.8-12.3,19.5
		c-4,1.4-8.3,2.6-12.6,3.6C1352.4,379.5,1342.4,380.7,1332,380.7z"/>
	<path d="M1493.8,200.2L1493.8,200.2c2.5,0,4.2,2.4,3.4,4.7L1437.8,374c-0.5,1.4-1.9,2.4-3.4,2.4H1404c-2.5,0-4.2-2.4-3.4-4.7
		l73.8-207.4c0.5-1.4,1.9-2.4,3.4-2.4h32c1.5,0,2.9,1,3.4,2.4l73.8,207.4c0.8,2.3-0.9,4.7-3.4,4.7h-30.4c-1.5,0-2.9-1-3.4-2.4
		l-59.4-169.1C1489.6,202.6,1491.3,200.2,1493.8,200.2z M1535.1,325.5h-82.6c-2,0-3.6-1.6-3.6-3.6v-27.2c0-2,1.6-3.6,3.6-3.6h82.6
		c2,0,3.6,1.6,3.6,3.6v27.2C1538.7,323.9,1537.1,325.5,1535.1,325.5z"/>
	<path d="M1600.4,367.7V170.5c0-4.7,3.9-8.7,8.7-8.7h71.7c20.4,0,38.6,4.3,54.5,12.8c15.9,8.5,28.5,20.8,37.6,36.8
		c9.1,16,13.7,35.2,13.7,57.7c0,22.4-4.6,41.7-13.7,57.7c-9.1,16-21.6,28.2-37.6,36.8c-15.9,8.5-34.1,12.8-54.5,12.8h-71.7
		C1604.2,376.3,1600.4,372.5,1600.4,367.7z M1639.6,332.7c0,4.7,3.9,8.7,8.7,8.7h32.4c13.9,0,25.5-2.9,34.7-8.8
		c9.3-5.8,16.3-14.2,21-25c4.7-10.9,7.1-23.7,7.1-38.6s-2.3-27.8-7.1-38.6c-4.7-10.9-11.7-19.1-21-24.9c-9.3-5.8-20.9-8.8-34.7-8.8
		h-32.4c-4.7,0-8.7,3.9-8.7,8.7V332.7z"/>
</g>
</svg>
